<svg width="369" height="369" viewBox="0 0 369 369" fill="none" xmlns="http://www.w3.org/2000/svg">
<path d="M166.05 239.85H202.95V276.75H166.05V239.85ZM166.05 92.25H202.95V202.95H166.05V92.25ZM184.5 0C82.4715 0 0 83.025 0 184.5C0 233.432 19.4383 280.361 54.0388 314.961C71.1712 332.094 91.5103 345.684 113.895 354.956C136.279 364.228 160.271 369 184.5 369C233.432 369 280.361 349.562 314.961 314.961C349.562 280.361 369 233.432 369 184.5C369 160.271 364.228 136.279 354.956 113.895C345.684 91.5103 332.094 71.1712 314.961 54.0388C297.829 36.9064 277.49 23.3162 255.105 14.0442C232.721 4.77223 208.729 0 184.5 0ZM184.5 332.1C145.354 332.1 107.811 316.549 80.131 288.869C52.4507 261.189 36.9 223.646 36.9 184.5C36.9 145.354 52.4507 107.811 80.131 80.131C107.811 52.4507 145.354 36.9 184.5 36.9C223.646 36.9 261.189 52.4507 288.869 80.131C316.549 107.811 332.1 145.354 332.1 184.5C332.1 223.646 316.549 261.189 288.869 288.869C261.189 316.549 223.646 332.1 184.5 332.1Z" fill="#FF3636"/>
</svg>
